<svg width="114" height="40" viewBox="0 0 114 40" fill="none" xmlns="http://www.w3.org/2000/svg">
<path d="M12.29 12.7082C13.5261 12.7082 14.764 12.7082 16.0403 12.7082C16.0403 13.5055 16.0403 14.2822 16.0403 15.1604C17.0369 13.1112 18.7154 12.3672 20.7959 12.412C22.894 12.4568 24.4868 13.3833 25.4327 15.2534C25.7666 14.8332 26.0708 14.3752 26.4502 13.9911C27.4188 13.0096 28.6357 12.5412 30.0082 12.4292C30.9156 12.3552 31.809 12.4327 32.6745 12.7203C34.2743 13.2489 35.2586 14.3786 35.8233 15.9009C36.229 16.9944 36.3426 18.1362 36.3444 19.2917C36.3478 21.9815 36.3461 24.6714 36.3461 27.3613C36.3461 27.4284 36.3374 27.4973 36.3304 27.592C35.1082 27.592 33.8914 27.592 32.6325 27.592C32.6325 27.4577 32.6325 27.3251 32.6325 27.1925C32.6325 24.6955 32.6465 22.2002 32.622 19.7032C32.6168 19.1298 32.5486 18.5374 32.3877 17.9881C32.0573 16.8635 31.281 16.142 30.0781 16.0077C28.7161 15.8561 27.557 16.2436 26.8069 17.4628C26.4397 18.0587 26.2579 18.7199 26.2509 19.4122C26.2247 21.9867 26.2142 24.5612 26.2002 27.1374C26.2002 27.2838 26.2002 27.4301 26.2002 27.5989C24.9414 27.5989 23.7105 27.5989 22.4394 27.5989C22.4394 27.456 22.4394 27.3216 22.4394 27.189C22.4377 24.5216 22.4447 21.8541 22.4254 19.1866C22.4184 18.3256 22.1929 17.5076 21.5932 16.8515C20.6631 15.8338 19.4864 15.7993 18.2748 16.1799C16.8865 16.6156 16.2764 17.6815 16.1155 19.0368C16.0596 19.5104 16.0578 19.9925 16.0561 20.4696C16.0508 22.7031 16.0543 24.9383 16.0543 27.1718C16.0543 27.3062 16.0543 27.4422 16.0543 27.6213C14.7832 27.6213 13.5366 27.6213 12.2918 27.6213C12.29 22.648 12.29 17.6781 12.29 12.7082Z" fill="#0A0103"/>
<path d="M51.0411 14.475C51.0411 13.9618 51.0411 13.3556 51.0411 12.7288C52.2981 12.7288 53.5203 12.7288 54.7704 12.7288C54.7704 17.6694 54.7704 22.6186 54.7704 27.592C53.55 27.592 52.3209 27.592 51.0603 27.592C51.0603 26.9703 51.0603 26.3486 51.0603 25.7063C50.9973 25.727 50.9571 25.727 50.9414 25.7476C49.9466 27.0736 48.5356 27.6832 46.9411 27.8709C44.4968 28.1602 42.369 27.4421 40.6556 25.677C39.4213 24.4061 38.7953 22.8528 38.617 21.1135C38.4264 19.2623 38.6922 17.4869 39.6835 15.8888C41.2274 13.4004 43.5387 12.2862 46.4778 12.4223C47.8363 12.486 49.0811 12.8941 50.1581 13.7379C50.4711 13.9842 50.7701 14.2477 51.0411 14.475ZM46.5932 15.8492C44.1891 15.8509 42.3673 17.6849 42.3638 20.1061C42.3603 22.548 44.2136 24.4578 46.5967 24.4647C49.0426 24.4733 50.9834 22.5463 50.9799 20.1165C50.9746 17.7435 49.0252 15.8475 46.5932 15.8492Z" fill="#0A0103"/>
<path d="M83.2217 14.4836C83.2217 13.9601 83.2217 13.3522 83.2217 12.7271C84.4788 12.7271 85.7009 12.7271 86.9492 12.7271C86.9492 17.6729 86.9492 22.6221 86.9492 27.5937C85.7236 27.5937 84.4945 27.5937 83.2339 27.5937C83.2339 26.9669 83.2339 26.3469 83.2339 25.6633C82.9402 25.9681 82.7111 26.2488 82.4401 26.4795C81.2093 27.5266 79.7354 27.945 78.1461 27.9347C76.0515 27.9209 74.2419 27.1718 72.803 25.6512C71.5617 24.3373 70.9357 22.753 70.7801 20.9741C70.6158 19.0953 70.92 17.3061 71.969 15.7115C73.5234 13.3505 75.7858 12.2932 78.6217 12.4206C79.9924 12.4826 81.2495 12.889 82.3352 13.7414C82.6482 13.9877 82.9437 14.2512 83.2217 14.4836ZM78.7633 15.8492C76.361 15.8527 74.5392 17.6884 74.5374 20.1096C74.5357 22.5498 76.3925 24.4596 78.7738 24.4647C81.2215 24.4699 83.1605 22.5429 83.1535 20.1131C83.1482 17.7401 81.1988 15.8458 78.7633 15.8492Z" fill="#0A0103"/>
<path d="M68.7905 17.034C67.6068 17.034 66.4319 17.034 65.2605 17.034C64.8793 15.4996 63.2726 14.859 61.9385 15.6994C60.9612 16.3159 60.9839 17.5472 62.0312 18.0207C62.6834 18.3169 63.4072 18.4616 64.1048 18.6562C65.1801 18.9558 66.2798 19.1762 67.2536 19.76C69.3709 21.0292 69.9619 23.6932 68.53 25.6615C67.7624 26.7154 66.6574 27.2992 65.4108 27.6281C63.3775 28.1654 61.4 28.0535 59.5467 26.9978C58.0466 26.142 57.1882 24.8573 57.0535 23.1335C57.05 23.0905 57.0588 23.0457 57.0623 22.9837C58.225 22.9837 59.3772 22.9837 60.5591 22.9837C60.6797 24.0066 61.2986 24.6076 62.2935 24.8453C63.1047 25.0381 63.9037 24.9675 64.6573 24.6007C65.3007 24.2873 65.5822 23.7741 65.5192 23.1421C65.4685 22.6376 65.1556 22.319 64.7167 22.1606C64.0908 21.935 63.4422 21.7679 62.797 21.5974C61.762 21.3236 60.7234 21.0722 59.7635 20.5694C57.4172 19.3398 57.0326 16.8049 57.8718 15.1466C58.4645 13.9739 59.4558 13.2196 60.6902 12.8098C62.8355 12.0985 64.9335 12.2277 66.8847 13.4159C68.1698 14.1995 68.7677 15.4083 68.8167 16.8859C68.8202 16.9307 68.8045 16.9737 68.7905 17.034Z" fill="#0A0103"/>
<path d="M94.0004 12.7392C94.0004 17.6936 94.0004 22.6342 94.0004 27.5955C92.7573 27.5955 91.5282 27.5955 90.2764 27.5955C90.2764 22.6462 90.2764 17.7074 90.2764 12.7392C91.502 12.7392 92.7311 12.7392 94.0004 12.7392Z" fill="#0A0103"/>
<path d="M94.0006 12.7392H90.2783V22.7651L94.0006 18.2481V12.7392Z" fill="#ED0331"/>
<path d="M92.1233 9.38457C93.283 9.38457 94.2231 8.4586 94.2231 7.31637C94.2231 6.17413 93.283 5.24817 92.1233 5.24817C90.9636 5.24817 90.0234 6.17413 90.0234 7.31637C90.0234 8.4586 90.9636 9.38457 92.1233 9.38457Z" fill="#0A0103"/>
<path d="M96.6035 25.996C96.6035 25.6362 96.6905 25.3022 96.8646 24.994C97.0405 24.6858 97.2829 24.4436 97.5917 24.2672C97.9024 24.0891 98.2374 24 98.5967 24C98.9561 24 99.2902 24.0891 99.599 24.2672C99.9078 24.4436 100.149 24.6858 100.323 24.994C100.499 25.3022 100.587 25.6362 100.587 25.996C100.587 26.3469 100.503 26.6756 100.334 26.982C100.166 27.2884 99.9265 27.5351 99.6158 27.7221C99.307 27.9074 98.9673 28 98.5967 28C98.228 28 97.8884 27.9083 97.5777 27.7248C97.2689 27.5395 97.0293 27.2937 96.859 26.9873C96.6887 26.6809 96.6035 26.3505 96.6035 25.996ZM96.9264 25.996C96.9264 26.3024 97.0012 26.5865 97.151 26.8484C97.3007 27.1084 97.5037 27.3124 97.7601 27.4603C98.0184 27.6081 98.2973 27.682 98.5967 27.682C98.8981 27.682 99.1779 27.6072 99.4361 27.4576C99.6944 27.3062 99.8965 27.1013 100.043 26.843C100.19 26.5847 100.264 26.3024 100.264 25.996C100.264 25.6914 100.19 25.4108 100.043 25.1543C99.8965 24.896 99.6944 24.6929 99.4361 24.5451C99.1779 24.3955 98.8981 24.3206 98.5967 24.3206C98.2973 24.3206 98.0184 24.3946 97.7601 24.5424C97.5019 24.6885 97.2979 24.8916 97.1481 25.1516C97.0003 25.4117 96.9264 25.6932 96.9264 25.996ZM98.1841 26.1964V27.0995H97.7882V24.831H98.5631C98.8494 24.831 99.0712 24.8898 99.2284 25.0073C99.3875 25.1231 99.467 25.2924 99.467 25.515C99.467 25.7341 99.3472 25.9016 99.1077 26.0174C99.336 26.1064 99.4511 26.2881 99.453 26.5625V26.7254C99.453 26.8786 99.4689 26.9891 99.5007 27.0568V27.0995H99.0936C99.0674 27.0354 99.0543 26.9214 99.0543 26.7575C99.0543 26.5918 99.0515 26.4939 99.0459 26.4636C99.016 26.2926 98.8934 26.2035 98.6782 26.1964H98.1841ZM98.1841 25.8544H98.622C98.7568 25.8508 98.8653 25.8196 98.9477 25.7609C99.03 25.7021 99.0712 25.6246 99.0712 25.5284C99.0712 25.3984 99.0347 25.3066 98.9617 25.2532C98.8887 25.198 98.7586 25.1703 98.5715 25.1703H98.1841V25.8544Z" fill="#0A0103"/>
</svg>
